<?xml version="1.0" encoding="utf-8"?>
<!-- Generator: Adobe Illustrator 19.0.0, SVG Export Plug-In . SVG Version: 6.00 Build 0)  -->
<svg version="1.1" id="Ebene_1" xmlns="http://www.w3.org/2000/svg" xmlns:xlink="http://www.w3.org/1999/xlink" x="0px" y="0px"
	 viewBox="0 0 236.94936 269.9996" style="enable-background:new 0 0 236.94936 269.9996;" xml:space="preserve">
<style type="text/css">
	.st0{fill:#FFFFFF;}
</style>
<g id="XMLID_1_">
	<g id="XMLID_17_">
		<path id="XMLID_23_" class="st0" d="M53.08062,159.74867c1.34759,0,2.69518-0.04945,4.04046-0.15279l4.57279,23.69757
			C76.67484,183.38109,91.72024,186,100.87799,195h37.17685c8.74486-9,22.85825-11.35072,37.1564-11.67761l4.6058-23.65997
			c1.34753,0.10335,2.69737,0.11952,4.04944,0.11952c29.26913,0,53.08287-23.83653,53.08287-53.1111
			c-0.00224-29.05881-23.46341-52.74781-52.43156-53.09825C178.04495,22.62893,150.68709,0,118.47356,0
			C86.25996,0,58.9021,22.62045,52.42931,53.56635C23.46111,53.91679,0,77.59644,0,106.65524
			C0,135.92975,23.81149,159.74867,53.08062,159.74867z M53.07838,67.03673c1.38123,0,2.83664,0.08086,4.31896,0.24037
			l6.65697,0.71439l0.75689-6.65423c3.10163-27.28632,26.16975-47.86229,53.66235-47.86229s50.56067,20.57821,53.66235,47.86454
			l0.75459,6.65423l6.65921-0.71439c1.48238-0.15952,2.93549-0.24037,4.31673-0.24037
			c21.83955,0,39.60721,17.77225,39.60721,39.61523c-0.00218,21.84305-17.77214,39.61304-39.60945,39.61304
			c-2.71532,0-5.43066-0.27855-8.07416-0.82445l-6.67496-1.51233L161.85619,181h-21.69131l3.56207-43.59122l-13.43074-1.16051
			L126.64425,181h-16.3055l-3.69009-43.79115l-13.42855,1.06355L96.81588,181H75.05044l-7.21846-37.07178l-6.68394,1.45033
			c-2.63899,0.54814-5.3543,0.85658-8.06966,0.85658c-21.83957,0-39.60497-17.75395-39.60497-39.59924
			C13.47341,84.79292,31.23881,67.03673,53.07838,67.03673z"/>
	</g>
	<path id="XMLID_7_" class="st0" d="M177.03886,190.79152c-24.29213,0-40.18892,6.91481-40.18892,25.34532
		c0,20.53775,12.60425,45.9325,37.05359,45.9325c27.02544,0,36.53926-3.89771,39.28831-15.39545
		c2.97362-12.42105,5.96971-35.46144-1.12521-47.00635C209.89255,196.12701,201.29956,190.79152,177.03886,190.79152
		L177.03886,190.79152z M60.05214,190.79152c-24.25844,0-32.85143,5.33549-35.02774,8.87828
		c-7.09494,11.54491-4.10109,34.5853-1.12522,47.00635c2.75353,11.49548,12.2651,15.39545,39.29054,15.39545
		c24.44934,0,37.05359-25.39699,37.05359-45.9325C100.24331,197.70633,84.34876,190.79152,60.05214,190.79152L60.05214,190.79152z
		 M118.5455,217.14554h-0.10107c-6.60082,0.03369-9.13201,3.69778-11.07924,11.96725
		c-4.26279,19.77843-18.1068,40.88681-44.03173,40.88681c-20.1012,0-37.12546-4.00107-41.27147-8.29193
		c-12.83108-21.7037-13.44647-59.12862-1.29816-72.00122c6.59858-4.54024,19.67896-7.46971,39.29055-7.46971
		c18.11578,0,36.46964,3.96063,44.51911,17.26682c3.06571,4.95808,7.98657,6.81821,13.96303,6.82495h0.02245
		c5.97871-0.00674,10.89733-1.86911,13.96304-6.82495c8.04947-13.3062,26.40332-17.26682,44.51686-17.26682
		c19.60934,0,32.69421,2.92947,39.29056,7.4697c12.1483,12.87036,11.53293,50.29752-1.29816,72.00121
		c-4.14603,4.29089-21.17027,8.29193-41.27147,8.29193c-25.92494,0-39.77118-21.10837-44.03174-40.8868
		c-1.94499-8.26947-4.47617-11.93356-11.07924-11.96725h-0.10333V217.14554z"/>
</g>
</svg>
